<svg xmlns="http://www.w3.org/2000/svg" xmlns:xlink="http://www.w3.org/1999/xlink" width="250" zoomAndPan="magnify" viewBox="0 0 187.5 187.499992" height="250" preserveAspectRatio="xMidYMid meet" version="1.0"><defs><g/><clipPath id="7f01ee7a8d"><path d="M 5.273438 26.375 L 181.804688 26.375 L 181.804688 113.75 L 5.273438 113.75 Z M 5.273438 26.375 " clip-rule="nonzero"/></clipPath></defs><path fill="#ffffff" d="M 0 0 L 187 0 L 187 187 L 0 187 Z M 0 0 " fill-opacity="1" fill-rule="nonzero"/><g clip-path="url(#7f01ee7a8d)"><path fill="#4c5270" d="M 181.710938 70.164062 C 181.710938 94.429688 161.964844 114.097656 137.605469 114.097656 C 131.40625 114.097656 125.511719 112.824219 120.15625 110.523438 C 125.792969 106.816406 130.613281 101.972656 134.28125 96.320312 C 135.367188 96.453125 136.480469 96.523438 137.605469 96.523438 C 152.222656 96.523438 164.070312 84.722656 164.070312 70.164062 C 164.070312 57.101562 154.53125 46.265625 142.015625 44.171875 L 142.015625 26.449219 C 164.304688 28.65625 181.710938 47.382812 181.710938 70.164062 Z M 44.988281 96.160156 C 32.472656 94.066406 22.933594 83.226562 22.933594 70.164062 C 22.933594 55.605469 34.78125 43.804688 49.398438 43.804688 C 50.523438 43.804688 51.632812 43.875 52.726562 44.011719 C 56.394531 38.355469 61.210938 33.515625 66.847656 29.808594 C 61.492188 27.507812 55.597656 26.230469 49.398438 26.230469 C 25.039062 26.230469 5.292969 45.902344 5.292969 70.164062 C 5.292969 92.945312 22.699219 111.679688 44.988281 113.882812 Z M 137.605469 43.804688 L 128.789062 43.804688 C 134.320312 51.148438 137.605469 60.277344 137.605469 70.164062 C 137.605469 94.429688 117.859375 114.097656 93.503906 114.097656 L 49.398438 114.097656 L 49.398438 96.523438 L 58.214844 96.523438 C 52.679688 89.183594 49.398438 80.058594 49.398438 70.164062 C 49.398438 45.902344 69.144531 26.230469 93.503906 26.230469 L 137.605469 26.230469 Z M 119.964844 70.164062 C 119.964844 55.605469 108.117188 43.804688 93.503906 43.804688 C 78.886719 43.804688 67.039062 55.605469 67.039062 70.164062 C 67.039062 84.722656 78.886719 96.523438 93.503906 96.523438 C 108.113281 96.523438 119.964844 84.722656 119.964844 70.164062 Z M 119.964844 70.164062 " fill-opacity="1" fill-rule="nonzero"/></g><g fill="#000000" fill-opacity="1"><g transform="translate(20.784347, 148.775893)"><g><path d="M 9.796875 -3.09375 C 9.796875 -2.113281 9.441406 -1.351562 8.734375 -0.8125 C 8.023438 -0.269531 7.035156 0 5.765625 0 L 1.3125 0 L 1.3125 -10.96875 L 5.296875 -10.96875 C 7.867188 -10.96875 9.15625 -10.082031 9.15625 -8.3125 C 9.15625 -7.664062 8.972656 -7.117188 8.609375 -6.671875 C 8.242188 -6.234375 7.734375 -5.9375 7.078125 -5.78125 C 7.941406 -5.675781 8.609375 -5.382812 9.078125 -4.90625 C 9.554688 -4.425781 9.796875 -3.820312 9.796875 -3.09375 Z M 7.671875 -8.125 C 7.671875 -8.71875 7.46875 -9.140625 7.0625 -9.390625 C 6.65625 -9.648438 6.066406 -9.78125 5.296875 -9.78125 L 2.796875 -9.78125 L 2.796875 -6.3125 L 5.296875 -6.3125 C 6.085938 -6.3125 6.679688 -6.457031 7.078125 -6.75 C 7.472656 -7.050781 7.671875 -7.507812 7.671875 -8.125 Z M 8.296875 -3.203125 C 8.296875 -4.503906 7.382812 -5.15625 5.5625 -5.15625 L 2.796875 -5.15625 L 2.796875 -1.1875 L 5.6875 -1.1875 C 6.59375 -1.1875 7.253906 -1.351562 7.671875 -1.6875 C 8.085938 -2.03125 8.296875 -2.535156 8.296875 -3.203125 Z M 8.296875 -3.203125 "/></g></g></g><g fill="#000000" fill-opacity="1"><g transform="translate(31.42524, 148.775893)"><g><path d="M 1.078125 0 L 1.078125 -11.5625 L 2.484375 -11.5625 L 2.484375 0 Z M 1.078125 0 "/></g></g></g><g fill="#000000" fill-opacity="1"><g transform="translate(34.969613, 148.775893)"><g><path d="M 8.203125 -4.21875 C 8.203125 -2.75 7.875 -1.648438 7.21875 -0.921875 C 6.570312 -0.203125 5.632812 0.15625 4.40625 0.15625 C 3.175781 0.15625 2.242188 -0.21875 1.609375 -0.96875 C 0.984375 -1.71875 0.671875 -2.800781 0.671875 -4.21875 C 0.671875 -7.125 1.929688 -8.578125 4.453125 -8.578125 C 5.734375 -8.578125 6.675781 -8.222656 7.28125 -7.515625 C 7.894531 -6.804688 8.203125 -5.707031 8.203125 -4.21875 Z M 6.734375 -4.21875 C 6.734375 -5.382812 6.554688 -6.226562 6.203125 -6.75 C 5.859375 -7.28125 5.28125 -7.546875 4.46875 -7.546875 C 3.644531 -7.546875 3.050781 -7.273438 2.6875 -6.734375 C 2.320312 -6.203125 2.140625 -5.363281 2.140625 -4.21875 C 2.140625 -3.113281 2.316406 -2.28125 2.671875 -1.71875 C 3.035156 -1.15625 3.609375 -0.875 4.390625 -0.875 C 5.222656 -0.875 5.820312 -1.144531 6.1875 -1.6875 C 6.550781 -2.226562 6.734375 -3.070312 6.734375 -4.21875 Z M 6.734375 -4.21875 "/></g></g></g><g fill="#000000" fill-opacity="1"><g transform="translate(43.842223, 148.775893)"><g><path d="M 2.140625 -4.25 C 2.140625 -3.132812 2.316406 -2.304688 2.671875 -1.765625 C 3.023438 -1.222656 3.554688 -0.953125 4.265625 -0.953125 C 4.765625 -0.953125 5.179688 -1.085938 5.515625 -1.359375 C 5.847656 -1.628906 6.054688 -2.046875 6.140625 -2.609375 L 7.5625 -2.515625 C 7.445312 -1.703125 7.097656 -1.050781 6.515625 -0.5625 C 5.929688 -0.0820312 5.195312 0.15625 4.3125 0.15625 C 3.132812 0.15625 2.234375 -0.210938 1.609375 -0.953125 C 0.984375 -1.703125 0.671875 -2.789062 0.671875 -4.21875 C 0.671875 -5.632812 0.984375 -6.710938 1.609375 -7.453125 C 2.234375 -8.203125 3.128906 -8.578125 4.296875 -8.578125 C 5.148438 -8.578125 5.863281 -8.351562 6.4375 -7.90625 C 7.007812 -7.46875 7.367188 -6.851562 7.515625 -6.0625 L 6.0625 -5.953125 C 5.988281 -6.421875 5.804688 -6.789062 5.515625 -7.0625 C 5.222656 -7.34375 4.800781 -7.484375 4.25 -7.484375 C 3.507812 -7.484375 2.972656 -7.234375 2.640625 -6.734375 C 2.304688 -6.242188 2.140625 -5.414062 2.140625 -4.25 Z M 2.140625 -4.25 "/></g></g></g><g fill="#000000" fill-opacity="1"><g transform="translate(51.818998, 148.775893)"><g><path d="M 6.359375 0 L 3.5 -3.84375 L 2.484375 -3 L 2.484375 0 L 1.078125 0 L 1.078125 -11.5625 L 2.484375 -11.5625 L 2.484375 -4.34375 L 6.171875 -8.421875 L 7.828125 -8.421875 L 4.40625 -4.8125 L 8 0 Z M 6.359375 0 "/></g></g></g><g fill="#000000" fill-opacity="1"><g transform="translate(59.795772, 148.775893)"><g><path d="M 7.40625 -2.328125 C 7.40625 -1.535156 7.101562 -0.921875 6.5 -0.484375 C 5.894531 -0.0546875 5.054688 0.15625 3.984375 0.15625 C 2.929688 0.15625 2.117188 -0.015625 1.546875 -0.359375 C 0.984375 -0.703125 0.613281 -1.242188 0.4375 -1.984375 L 1.6875 -2.21875 C 1.800781 -1.769531 2.046875 -1.4375 2.421875 -1.21875 C 2.796875 -1.007812 3.316406 -0.90625 3.984375 -0.90625 C 4.691406 -0.90625 5.207031 -1.015625 5.53125 -1.234375 C 5.863281 -1.453125 6.03125 -1.78125 6.03125 -2.21875 C 6.03125 -2.550781 5.914062 -2.820312 5.6875 -3.03125 C 5.457031 -3.238281 5.09375 -3.410156 4.59375 -3.546875 L 3.578125 -3.8125 C 2.773438 -4.019531 2.203125 -4.222656 1.859375 -4.421875 C 1.523438 -4.617188 1.257812 -4.859375 1.0625 -5.140625 C 0.875 -5.429688 0.78125 -5.785156 0.78125 -6.203125 C 0.78125 -6.972656 1.050781 -7.554688 1.59375 -7.953125 C 2.144531 -8.359375 2.945312 -8.5625 4 -8.5625 C 4.925781 -8.5625 5.660156 -8.394531 6.203125 -8.0625 C 6.753906 -7.738281 7.101562 -7.21875 7.25 -6.5 L 5.984375 -6.34375 C 5.910156 -6.71875 5.703125 -7.003906 5.359375 -7.203125 C 5.023438 -7.398438 4.570312 -7.5 4 -7.5 C 3.363281 -7.5 2.894531 -7.398438 2.59375 -7.203125 C 2.289062 -7.015625 2.140625 -6.726562 2.140625 -6.34375 C 2.140625 -6.101562 2.203125 -5.90625 2.328125 -5.75 C 2.453125 -5.59375 2.632812 -5.457031 2.875 -5.34375 C 3.125 -5.238281 3.640625 -5.09375 4.421875 -4.90625 C 5.160156 -4.71875 5.691406 -4.539062 6.015625 -4.375 C 6.347656 -4.21875 6.609375 -4.039062 6.796875 -3.84375 C 6.992188 -3.65625 7.144531 -3.4375 7.25 -3.1875 C 7.351562 -2.9375 7.40625 -2.648438 7.40625 -2.328125 Z M 7.40625 -2.328125 "/></g></g></g><g fill="#000000" fill-opacity="1"><g transform="translate(67.772547, 148.775893)"><g/></g></g><g fill="#000000" fill-opacity="1"><g transform="translate(72.20496, 148.775893)"><g><path d="M 10.640625 0 L 10.640625 -7.328125 C 10.640625 -8.128906 10.660156 -8.90625 10.703125 -9.65625 C 10.453125 -8.726562 10.226562 -8.003906 10.03125 -7.484375 L 7.1875 0 L 6.140625 0 L 3.265625 -7.484375 L 2.828125 -8.796875 L 2.578125 -9.65625 L 2.609375 -8.796875 L 2.640625 -7.328125 L 2.640625 0 L 1.3125 0 L 1.3125 -10.96875 L 3.265625 -10.96875 L 6.1875 -3.359375 C 6.289062 -3.054688 6.390625 -2.726562 6.484375 -2.375 C 6.578125 -2.03125 6.640625 -1.78125 6.671875 -1.625 C 6.710938 -1.832031 6.800781 -2.144531 6.9375 -2.5625 C 7.070312 -2.988281 7.160156 -3.253906 7.203125 -3.359375 L 10.078125 -10.96875 L 11.984375 -10.96875 L 11.984375 0 Z M 10.640625 0 "/></g></g></g><g fill="#000000" fill-opacity="1"><g transform="translate(85.494392, 148.775893)"><g><path d="M 2.15625 -3.921875 C 2.15625 -2.953125 2.351562 -2.203125 2.75 -1.671875 C 3.144531 -1.148438 3.726562 -0.890625 4.5 -0.890625 C 5.101562 -0.890625 5.585938 -1.007812 5.953125 -1.25 C 6.328125 -1.5 6.578125 -1.8125 6.703125 -2.1875 L 7.9375 -1.84375 C 7.4375 -0.507812 6.289062 0.15625 4.5 0.15625 C 3.257812 0.15625 2.3125 -0.210938 1.65625 -0.953125 C 1 -1.703125 0.671875 -2.804688 0.671875 -4.265625 C 0.671875 -5.660156 1 -6.726562 1.65625 -7.46875 C 2.3125 -8.207031 3.242188 -8.578125 4.453125 -8.578125 C 6.921875 -8.578125 8.15625 -7.085938 8.15625 -4.109375 L 8.15625 -3.921875 Z M 6.71875 -5 C 6.632812 -5.882812 6.40625 -6.53125 6.03125 -6.9375 C 5.65625 -7.34375 5.117188 -7.546875 4.421875 -7.546875 C 3.742188 -7.546875 3.207031 -7.316406 2.8125 -6.859375 C 2.414062 -6.410156 2.203125 -5.789062 2.171875 -5 Z M 6.71875 -5 "/></g></g></g><g fill="#000000" fill-opacity="1"><g transform="translate(94.367001, 148.775893)"><g><path d="M 2.15625 -3.921875 C 2.15625 -2.953125 2.351562 -2.203125 2.75 -1.671875 C 3.144531 -1.148438 3.726562 -0.890625 4.5 -0.890625 C 5.101562 -0.890625 5.585938 -1.007812 5.953125 -1.25 C 6.328125 -1.5 6.578125 -1.8125 6.703125 -2.1875 L 7.9375 -1.84375 C 7.4375 -0.507812 6.289062 0.15625 4.5 0.15625 C 3.257812 0.15625 2.3125 -0.210938 1.65625 -0.953125 C 1 -1.703125 0.671875 -2.804688 0.671875 -4.265625 C 0.671875 -5.660156 1 -6.726562 1.65625 -7.46875 C 2.3125 -8.207031 3.242188 -8.578125 4.453125 -8.578125 C 6.921875 -8.578125 8.15625 -7.085938 8.15625 -4.109375 L 8.15625 -3.921875 Z M 6.71875 -5 C 6.632812 -5.882812 6.40625 -6.53125 6.03125 -6.9375 C 5.65625 -7.34375 5.117188 -7.546875 4.421875 -7.546875 C 3.742188 -7.546875 3.207031 -7.316406 2.8125 -6.859375 C 2.414062 -6.410156 2.203125 -5.789062 2.171875 -5 Z M 6.71875 -5 "/></g></g></g><g fill="#000000" fill-opacity="1"><g transform="translate(103.239611, 148.775893)"><g><path d="M 4.3125 -0.0625 C 3.851562 0.0625 3.378906 0.125 2.890625 0.125 C 1.773438 0.125 1.21875 -0.507812 1.21875 -1.78125 L 1.21875 -7.40625 L 0.234375 -7.40625 L 0.234375 -8.421875 L 1.265625 -8.421875 L 1.6875 -10.3125 L 2.625 -10.3125 L 2.625 -8.421875 L 4.171875 -8.421875 L 4.171875 -7.40625 L 2.625 -7.40625 L 2.625 -2.09375 C 2.625 -1.6875 2.6875 -1.398438 2.8125 -1.234375 C 2.945312 -1.066406 3.175781 -0.984375 3.5 -0.984375 C 3.6875 -0.984375 3.957031 -1.019531 4.3125 -1.09375 Z M 4.3125 -0.0625 "/></g></g></g><g fill="#000000" fill-opacity="1"><g transform="translate(107.672024, 148.775893)"><g/></g></g><g fill="#000000" fill-opacity="1"><g transform="translate(112.104437, 148.775893)"><g><path d="M 9.796875 -3.09375 C 9.796875 -2.113281 9.441406 -1.351562 8.734375 -0.8125 C 8.023438 -0.269531 7.035156 0 5.765625 0 L 1.3125 0 L 1.3125 -10.96875 L 5.296875 -10.96875 C 7.867188 -10.96875 9.15625 -10.082031 9.15625 -8.3125 C 9.15625 -7.664062 8.972656 -7.117188 8.609375 -6.671875 C 8.242188 -6.234375 7.734375 -5.9375 7.078125 -5.78125 C 7.941406 -5.675781 8.609375 -5.382812 9.078125 -4.90625 C 9.554688 -4.425781 9.796875 -3.820312 9.796875 -3.09375 Z M 7.671875 -8.125 C 7.671875 -8.71875 7.46875 -9.140625 7.0625 -9.390625 C 6.65625 -9.648438 6.066406 -9.78125 5.296875 -9.78125 L 2.796875 -9.78125 L 2.796875 -6.3125 L 5.296875 -6.3125 C 6.085938 -6.3125 6.679688 -6.457031 7.078125 -6.75 C 7.472656 -7.050781 7.671875 -7.507812 7.671875 -8.125 Z M 8.296875 -3.203125 C 8.296875 -4.503906 7.382812 -5.15625 5.5625 -5.15625 L 2.796875 -5.15625 L 2.796875 -1.1875 L 5.6875 -1.1875 C 6.59375 -1.1875 7.253906 -1.351562 7.671875 -1.6875 C 8.085938 -2.03125 8.296875 -2.535156 8.296875 -3.203125 Z M 8.296875 -3.203125 "/></g></g></g><g fill="#000000" fill-opacity="1"><g transform="translate(122.745329, 148.775893)"><g><path d="M 1.0625 -10.21875 L 1.0625 -11.5625 L 2.46875 -11.5625 L 2.46875 -10.21875 Z M 1.0625 0 L 1.0625 -8.421875 L 2.46875 -8.421875 L 2.46875 0 Z M 1.0625 0 "/></g></g></g><g fill="#000000" fill-opacity="1"><g transform="translate(126.289703, 148.775893)"><g><path d="M 6.390625 -1.359375 C 6.128906 -0.816406 5.785156 -0.425781 5.359375 -0.1875 C 4.929688 0.0390625 4.398438 0.15625 3.765625 0.15625 C 2.703125 0.15625 1.921875 -0.203125 1.421875 -0.921875 C 0.921875 -1.640625 0.671875 -2.722656 0.671875 -4.171875 C 0.671875 -7.109375 1.703125 -8.578125 3.765625 -8.578125 C 4.410156 -8.578125 4.941406 -8.460938 5.359375 -8.234375 C 5.785156 -8.003906 6.128906 -7.632812 6.390625 -7.125 L 6.40625 -7.125 L 6.390625 -8.0625 L 6.390625 -11.5625 L 7.796875 -11.5625 L 7.796875 -1.734375 C 7.796875 -0.859375 7.8125 -0.28125 7.84375 0 L 6.5 0 C 6.488281 -0.0820312 6.472656 -0.273438 6.453125 -0.578125 C 6.429688 -0.878906 6.421875 -1.140625 6.421875 -1.359375 Z M 2.140625 -4.21875 C 2.140625 -3.039062 2.296875 -2.195312 2.609375 -1.6875 C 2.921875 -1.175781 3.425781 -0.921875 4.125 -0.921875 C 4.914062 -0.921875 5.488281 -1.195312 5.84375 -1.75 C 6.207031 -2.300781 6.390625 -3.15625 6.390625 -4.3125 C 6.390625 -5.425781 6.207031 -6.242188 5.84375 -6.765625 C 5.488281 -7.285156 4.921875 -7.546875 4.140625 -7.546875 C 3.429688 -7.546875 2.921875 -7.285156 2.609375 -6.765625 C 2.296875 -6.242188 2.140625 -5.394531 2.140625 -4.21875 Z M 2.140625 -4.21875 "/></g></g></g><g fill="#000000" fill-opacity="1"><g transform="translate(135.162313, 148.775893)"><g><path d="M 6.390625 -1.359375 C 6.128906 -0.816406 5.785156 -0.425781 5.359375 -0.1875 C 4.929688 0.0390625 4.398438 0.15625 3.765625 0.15625 C 2.703125 0.15625 1.921875 -0.203125 1.421875 -0.921875 C 0.921875 -1.640625 0.671875 -2.722656 0.671875 -4.171875 C 0.671875 -7.109375 1.703125 -8.578125 3.765625 -8.578125 C 4.410156 -8.578125 4.941406 -8.460938 5.359375 -8.234375 C 5.785156 -8.003906 6.128906 -7.632812 6.390625 -7.125 L 6.40625 -7.125 L 6.390625 -8.0625 L 6.390625 -11.5625 L 7.796875 -11.5625 L 7.796875 -1.734375 C 7.796875 -0.859375 7.8125 -0.28125 7.84375 0 L 6.5 0 C 6.488281 -0.0820312 6.472656 -0.273438 6.453125 -0.578125 C 6.429688 -0.878906 6.421875 -1.140625 6.421875 -1.359375 Z M 2.140625 -4.21875 C 2.140625 -3.039062 2.296875 -2.195312 2.609375 -1.6875 C 2.921875 -1.175781 3.425781 -0.921875 4.125 -0.921875 C 4.914062 -0.921875 5.488281 -1.195312 5.84375 -1.75 C 6.207031 -2.300781 6.390625 -3.15625 6.390625 -4.3125 C 6.390625 -5.425781 6.207031 -6.242188 5.84375 -6.765625 C 5.488281 -7.285156 4.921875 -7.546875 4.140625 -7.546875 C 3.429688 -7.546875 2.921875 -7.285156 2.609375 -6.765625 C 2.296875 -6.242188 2.140625 -5.394531 2.140625 -4.21875 Z M 2.140625 -4.21875 "/></g></g></g><g fill="#000000" fill-opacity="1"><g transform="translate(144.034922, 148.775893)"><g><path d="M 2.15625 -3.921875 C 2.15625 -2.953125 2.351562 -2.203125 2.75 -1.671875 C 3.144531 -1.148438 3.726562 -0.890625 4.5 -0.890625 C 5.101562 -0.890625 5.585938 -1.007812 5.953125 -1.25 C 6.328125 -1.5 6.578125 -1.8125 6.703125 -2.1875 L 7.9375 -1.84375 C 7.4375 -0.507812 6.289062 0.15625 4.5 0.15625 C 3.257812 0.15625 2.3125 -0.210938 1.65625 -0.953125 C 1 -1.703125 0.671875 -2.804688 0.671875 -4.265625 C 0.671875 -5.660156 1 -6.726562 1.65625 -7.46875 C 2.3125 -8.207031 3.242188 -8.578125 4.453125 -8.578125 C 6.921875 -8.578125 8.15625 -7.085938 8.15625 -4.109375 L 8.15625 -3.921875 Z M 6.71875 -5 C 6.632812 -5.882812 6.40625 -6.53125 6.03125 -6.9375 C 5.65625 -7.34375 5.117188 -7.546875 4.421875 -7.546875 C 3.742188 -7.546875 3.207031 -7.316406 2.8125 -6.859375 C 2.414062 -6.410156 2.203125 -5.789062 2.171875 -5 Z M 6.71875 -5 "/></g></g></g><g fill="#000000" fill-opacity="1"><g transform="translate(152.907532, 148.775893)"><g><path d="M 1.109375 0 L 1.109375 -6.46875 C 1.109375 -7.0625 1.09375 -7.710938 1.0625 -8.421875 L 2.390625 -8.421875 C 2.429688 -7.472656 2.453125 -6.898438 2.453125 -6.703125 L 2.484375 -6.703125 C 2.703125 -7.429688 2.957031 -7.925781 3.25 -8.1875 C 3.539062 -8.445312 3.953125 -8.578125 4.484375 -8.578125 C 4.671875 -8.578125 4.859375 -8.550781 5.046875 -8.5 L 5.046875 -7.21875 C 4.859375 -7.269531 4.609375 -7.296875 4.296875 -7.296875 C 3.710938 -7.296875 3.269531 -7.046875 2.96875 -6.546875 C 2.664062 -6.046875 2.515625 -5.328125 2.515625 -4.390625 L 2.515625 0 Z M 1.109375 0 "/></g></g></g><g fill="#000000" fill-opacity="1"><g transform="translate(158.220189, 148.775893)"><g><path d="M 7.40625 -2.328125 C 7.40625 -1.535156 7.101562 -0.921875 6.5 -0.484375 C 5.894531 -0.0546875 5.054688 0.15625 3.984375 0.15625 C 2.929688 0.15625 2.117188 -0.015625 1.546875 -0.359375 C 0.984375 -0.703125 0.613281 -1.242188 0.4375 -1.984375 L 1.6875 -2.21875 C 1.800781 -1.769531 2.046875 -1.4375 2.421875 -1.21875 C 2.796875 -1.007812 3.316406 -0.90625 3.984375 -0.90625 C 4.691406 -0.90625 5.207031 -1.015625 5.53125 -1.234375 C 5.863281 -1.453125 6.03125 -1.78125 6.03125 -2.21875 C 6.03125 -2.550781 5.914062 -2.820312 5.6875 -3.03125 C 5.457031 -3.238281 5.09375 -3.410156 4.59375 -3.546875 L 3.578125 -3.8125 C 2.773438 -4.019531 2.203125 -4.222656 1.859375 -4.421875 C 1.523438 -4.617188 1.257812 -4.859375 1.0625 -5.140625 C 0.875 -5.429688 0.78125 -5.785156 0.78125 -6.203125 C 0.78125 -6.972656 1.050781 -7.554688 1.59375 -7.953125 C 2.144531 -8.359375 2.945312 -8.5625 4 -8.5625 C 4.925781 -8.5625 5.660156 -8.394531 6.203125 -8.0625 C 6.753906 -7.738281 7.101562 -7.21875 7.25 -6.5 L 5.984375 -6.34375 C 5.910156 -6.71875 5.703125 -7.003906 5.359375 -7.203125 C 5.023438 -7.398438 4.570312 -7.5 4 -7.5 C 3.363281 -7.5 2.894531 -7.398438 2.59375 -7.203125 C 2.289062 -7.015625 2.140625 -6.726562 2.140625 -6.34375 C 2.140625 -6.101562 2.203125 -5.90625 2.328125 -5.75 C 2.453125 -5.59375 2.632812 -5.457031 2.875 -5.34375 C 3.125 -5.238281 3.640625 -5.09375 4.421875 -4.90625 C 5.160156 -4.71875 5.691406 -4.539062 6.015625 -4.375 C 6.347656 -4.21875 6.609375 -4.039062 6.796875 -3.84375 C 6.992188 -3.65625 7.144531 -3.4375 7.25 -3.1875 C 7.351562 -2.9375 7.40625 -2.648438 7.40625 -2.328125 Z M 7.40625 -2.328125 "/></g></g></g></svg>