<?xml version="1.0" encoding="UTF-8"?>
<svg version="1.1" xmlns="http://www.w3.org/2000/svg" width="65" height="55">
<path d="M0 0 C0.66 0 1.32 0 2 0 C2.33 0.99 2.66 1.98 3 3 C3.86625 2.814375 4.7325 2.62875 5.625 2.4375 C9.05152628 1.99332067 11.64212371 2.28045508 15 3 C14.01 6.63 13.02 10.26 12 14 C10.68 14.33 9.36 14.66 8 15 C9 13 9 13 10 12 C2.41 12 -5.18 12 -13 12 C-13.33 10.68 -13.66 9.36 -14 8 C-13.01 8.33 -12.02 8.66 -11 9 C-11 8.34 -11 7.68 -11 7 C-11.99 6.67 -12.98 6.34 -14 6 C-13.67 4.35 -13.34 2.7 -13 1 C-11.68 1 -10.36 1 -9 1 C-8.67 1.66 -8.34 2.32 -8 3 C-5.36 3 -2.72 3 0 3 C0 2.01 0 1.02 0 0 Z M-12 2 C-12 2.99 -12 3.98 -12 5 C-11.01 4.67 -10.02 4.34 -9 4 C-9.66 4 -10.32 4 -11 4 C-11.33 3.34 -11.66 2.68 -12 2 Z M11 4 C11 4.66 11 5.32 11 6 C11.66 6 12.32 6 13 6 C13 5.34 13 4.68 13 4 C12.34 4 11.68 4 11 4 Z M-7 5 C-7.33 6.32 -7.66 7.64 -8 9 C-7.01 9.495 -7.01 9.495 -6 10 C-6 8.35 -6 6.7 -6 5 C-6.33 5 -6.66 5 -7 5 Z M-2 5 C-2.33 6.32 -2.66 7.64 -3 9 C-2.01 9 -1.02 9 0 9 C-0.33 7.68 -0.66 6.36 -1 5 C-1.33 5 -1.66 5 -2 5 Z M4 5 C5 7 5 7 5 7 Z M9 7 C10 10 10 10 10 10 Z M4 8 C4 8.66 4 9.32 4 10 C4.66 10 5.32 10 6 10 C6 9.34 6 8.68 6 8 C5.34 8 4.68 8 4 8 Z " fill="#000000" transform="translate(16,21)"/>
<path d="M0 0 C1.65 0 3.3 0 5 0 C4.34 3.3 3.68 6.6 3 10 C3.99 10 4.98 10 6 10 C6 8.02 6 6.04 6 4 C9.65456815 3.24758891 13.31733897 2.59950296 17 2 C18.03159626 5.09478879 17.97482862 6.52631393 17.5625 9.6875 C17.46066406 10.49574219 17.35882813 11.30398437 17.25390625 12.13671875 C17.17011719 12.75160156 17.08632813 13.36648437 17 14 C15.35 14.33 13.7 14.66 12 15 C11.34 14.01 10.68 13.02 10 12 C7.57478506 11.41810734 7.57478506 11.41810734 4.875 11.3125 C3.26625 11.209375 1.6575 11.10625 0 11 C0 7.37 0 3.74 0 0 Z M9 4 C8.67 5.65 8.34 7.3 8 9 C8.99 9.495 8.99 9.495 10 10 C10 8.02 10 6.04 10 4 C9.67 4 9.34 4 9 4 Z M14 5 C15 7 15 7 15 7 Z M13 11 C13.33 11.99 13.66 12.98 14 14 C14.33 13.01 14.66 12.02 15 11 C14.34 11 13.68 11 13 11 Z " fill="#000000" transform="translate(44,22)"/>
<path d="M0 0 C1.7771041 2.66565614 2.65830538 4.62727021 3.625 7.625 C3.88539062 8.42164063 4.14578125 9.21828125 4.4140625 10.0390625 C5 12 5 12 5 13 C0.38 13 -4.24 13 -9 13 C-8.34 11.35 -7.68 9.7 -7 8 C-6.34 8 -5.68 8 -5 8 C-5.103125 7.236875 -5.20625 6.47375 -5.3125 5.6875 C-5.209375 4.800625 -5.10625 3.91375 -5 3 C-2.5 1.1875 -2.5 1.1875 0 0 Z " fill="#323231" transform="translate(38,21)"/>
<path d="M0 0 C0 0.99 0 1.98 0 3 C-0.66 2.67 -1.32 2.34 -2 2 C-2 4.31 -2 6.62 -2 9 C-2.99 8.67 -3.98 8.34 -5 8 C-5.3125 5.6875 -5.3125 5.6875 -5 3 C-2.5 1.1875 -2.5 1.1875 0 0 Z " fill="#272726" transform="translate(38,21)"/>
</svg>
